<svg width="188" height="19" viewBox="0 0 188 19" fill="none" xmlns="http://www.w3.org/2000/svg">
<g clip-path="url(#clip0_6_13468)">
<path fill-rule="evenodd" clip-rule="evenodd" d="M0 18.1801H20.23L30.82 0.0800781H10.67L0 18.1801Z" fill="white"/>
<path fill-rule="evenodd" clip-rule="evenodd" d="M40.6999 0.0800781H32.4799L21.8199 18.1801H30.1099L40.6999 0.0800781Z" fill="white"/>
<path fill-rule="evenodd" clip-rule="evenodd" d="M32.09 18.1801H37.62L48.21 0.0800781H42.68L32.09 18.1801Z" fill="white"/>
<path fill-rule="evenodd" clip-rule="evenodd" d="M40.3101 18.1801H44.3401L55.0901 0.0800781H50.9001L40.3101 18.1801Z" fill="white"/>
<path fill-rule="evenodd" clip-rule="evenodd" d="M61.57 0.0800781H58.17L47.58 18.1801H50.98L61.57 0.0800781Z" fill="white"/>
<path fill-rule="evenodd" clip-rule="evenodd" d="M187.09 4.35V0H151.99V18.1H187.09V6.88H166.14V11.22H181.32V13.6H157.84V4.35H187.09Z" fill="white"/>
<path fill-rule="evenodd" clip-rule="evenodd" d="M139.74 4.58V18.1H145.59V0H136.97L125.12 8.14L112.87 0H104.57V18.1H110.42V4.58L121.88 12.96H127.81L139.74 4.58Z" fill="white"/>
<path fill-rule="evenodd" clip-rule="evenodd" d="M100.38 18.1L90.66 0H67.18L56.51 18.1H63.15L65.44 14.23H91.92L94 18.1H100.38ZM87.18 4.35L89.63 9.56H67.82L70.66 4.35H87.18Z" fill="white"/>
</g>
<defs>
<clipPath id="clip0_6_13468">
<rect width="187.09" height="18.18" fill="white"/>
</clipPath>
</defs>
</svg>
