<svg width="24" height="24" viewBox="0 0 24 24" fill="none" xmlns="http://www.w3.org/2000/svg">
<path d="M11.9999 15C10.3431 15 8.99993 13.6569 8.99993 12C8.99993 10.3432 10.3431 9.00001 11.9999 9.00001C13.6568 9.00001 14.9999 10.3432 14.9999 12C14.9999 13.6569 13.6568 15 11.9999 15ZM11.9999 14C13.1045 14 13.9999 13.1046 13.9999 12C13.9999 10.8954 13.1045 10 11.9999 10C10.8954 10 9.99993 10.8954 9.99993 12C9.99993 13.1046 10.8954 14 11.9999 14ZM8.8354 16.1293C9.04016 16.3145 9.05596 16.6307 8.87068 16.8355C8.68541 17.0402 8.36922 17.056 8.16446 16.8708C8.00233 16.7241 7.84763 16.5694 7.70094 16.4072C5.26689 13.7172 5.47442 9.5633 8.16446 7.12926C8.36922 6.94398 8.68541 6.95978 8.87068 7.16454C9.05596 7.3693 9.04016 7.68549 8.8354 7.87076C6.55488 9.93426 6.37895 13.4558 8.44244 15.7363C8.56681 15.8737 8.69796 16.0049 8.8354 16.1293ZM6.17627 5.1189C6.38675 4.94015 6.70229 4.96587 6.88104 5.17635C7.05979 5.38683 7.03407 5.70237 6.82359 5.88112C3.44422 8.75108 3.03126 13.8172 5.90123 17.1965C6.18315 17.5285 6.49162 17.837 6.82359 18.1189C7.03407 18.2977 7.05979 18.6132 6.88104 18.8237C6.70229 19.0342 6.38675 19.0599 6.17627 18.8811C5.80295 18.5641 5.45605 18.2172 5.13901 17.8439C1.91154 14.0435 2.37594 8.34637 6.17627 5.1189ZM15.1658 7.87199C14.9604 7.68747 14.9434 7.37134 15.1279 7.1659C15.3125 6.96046 15.6286 6.9435 15.834 7.12803C18.5248 9.54482 18.7468 13.6853 16.33 16.376C16.1737 16.5501 16.0081 16.7156 15.834 16.872C15.6286 17.0565 15.3125 17.0396 15.1279 16.8341C14.9434 16.6287 14.9604 16.3126 15.1658 16.128C15.3133 15.9956 15.4536 15.8553 15.5861 15.7078C17.6338 13.4279 17.4457 9.91973 15.1658 7.87199ZM17.1761 5.88095C16.9657 5.70208 16.9401 5.38653 17.119 5.17615C17.2979 4.96576 17.6134 4.94021 17.8238 5.11907C21.624 8.34995 22.0856 14.0498 18.8547 17.85C18.5394 18.2209 18.1947 18.5656 17.8238 18.8809C17.6134 19.0598 17.2979 19.0343 17.119 18.8239C16.9401 18.6135 16.9657 18.2979 17.1761 18.1191C17.5059 17.8387 17.8125 17.5321 18.0928 17.2023C20.966 13.8228 20.5555 8.75409 17.1761 5.88095Z" fill="#D4D8D5"/>
</svg>
