<svg width="30" height="30" viewBox="0 0 30 30" fill="none" xmlns="http://www.w3.org/2000/svg">
<path d="M15 14.1161L20.1831 8.93306C20.4271 8.68898 20.8229 8.68898 21.0669 8.93306C21.311 9.17714 21.311 9.57286 21.0669 9.81694L15.8839 15L21.0669 20.1831C21.311 20.4271 21.311 20.8229 21.0669 21.0669C20.8229 21.311 20.4271 21.311 20.1831 21.0669L15 15.8839L9.81694 21.0669C9.57286 21.311 9.17714 21.311 8.93306 21.0669C8.68898 20.8229 8.68898 20.4271 8.93306 20.1831L14.1161 15L8.93306 9.81694C8.68898 9.57286 8.68898 9.17714 8.93306 8.93306C9.17714 8.68898 9.57286 8.68898 9.81694 8.93306L15 14.1161Z" fill="white"/>
</svg>
