<svg width="24" height="24" viewBox="0 0 24 24" fill="none" xmlns="http://www.w3.org/2000/svg">
<path d="M3 8.5C3 8.77614 2.77614 9 2.5 9C2.22386 9 2 8.77614 2 8.5V6.5C2 5.11929 3.11929 4 4.5 4H6.5C6.77614 4 7 4.22386 7 4.5C7 4.77614 6.77614 5 6.5 5H4.5C3.67157 5 3 5.67157 3 6.5V8.5ZM17.5 5C17.2239 5 17 4.77614 17 4.5C17 4.22386 17.2239 4 17.5 4H19.5C20.8807 4 22 5.11929 22 6.5V8.5C22 8.77614 21.7761 9 21.5 9C21.2239 9 21 8.77614 21 8.5V6.5C21 5.67157 20.3284 5 19.5 5H17.5ZM21 15.5C21 15.2239 21.2239 15 21.5 15C21.7761 15 22 15.2239 22 15.5V17.5C22 18.8807 20.8807 20 19.5 20H17.5C17.2239 20 17 19.7761 17 19.5C17 19.2239 17.2239 19 17.5 19H19.5C20.3284 19 21 18.3284 21 17.5V15.5ZM6.5 19C6.77614 19 7 19.2239 7 19.5C7 19.7761 6.77614 20 6.5 20H4.5C3.11929 20 2 18.8807 2 17.5V15.5C2 15.2239 2.22386 15 2.5 15C2.77614 15 3 15.2239 3 15.5V17.5C3 18.3284 3.67157 19 4.5 19H6.5Z" fill="#D4D8D5"/>
</svg>
