<svg width="30" height="30" viewBox="0 0 30 30" fill="none" xmlns="http://www.w3.org/2000/svg">
<path d="M4.375 8.75C4.02982 8.75 3.75 8.47018 3.75 8.125C3.75 7.77982 4.02982 7.5 4.375 7.5H25.625C25.9702 7.5 26.25 7.77982 26.25 8.125C26.25 8.47018 25.9702 8.75 25.625 8.75H4.375ZM4.375 15C4.02982 15 3.75 14.7202 3.75 14.375C3.75 14.0298 4.02982 13.75 4.375 13.75H25.625C25.9702 13.75 26.25 14.0298 26.25 14.375C26.25 14.7202 25.9702 15 25.625 15H4.375ZM4.375 21.25C4.02982 21.25 3.75 20.9702 3.75 20.625C3.75 20.2798 4.02982 20 4.375 20H25.625C25.9702 20 26.25 20.2798 26.25 20.625C26.25 20.9702 25.9702 21.25 25.625 21.25H4.375Z" fill="white"/>
</svg>
