<svg width="24" height="24" viewBox="0 0 24 24" fill="none" xmlns="http://www.w3.org/2000/svg">
<path d="M7 4.5V19.5C7 20.3284 7.67157 21 8.5 21H15.5114C16.3398 21 17.0114 20.3284 17.0114 19.5V4.5C17.0114 3.67157 16.3398 3 15.5114 3H8.5C7.67157 3 7 3.67157 7 4.5ZM6 4.5C6 3.11929 7.11929 2 8.5 2H15.5114C16.8921 2 18.0114 3.11929 18.0114 4.5V19.5C18.0114 20.8807 16.8921 22 15.5114 22H8.5C7.11929 22 6 20.8807 6 19.5V4.5ZM11 19C11 18.448 11.448 18 12 18C12.552 18 13 18.448 13 19C13 19.552 12.552 20 12 20C11.448 20 11 19.552 11 19Z" fill="#D4D8D5"/>
</svg>
