<svg width="24" height="24" viewBox="0 0 24 24" fill="none" xmlns="http://www.w3.org/2000/svg">
<path d="M3.84675 17.8603C4.04422 17.956 4.26584 18.0096 4.5 18.0096H19.5C19.7342 18.0096 19.9558 17.956 20.1533 17.8603L14.2446 12.2992L12.3179 13.886C12.1332 14.038 11.8668 14.038 11.6821 13.886L9.75538 12.2992L3.84675 17.8603ZM3.1431 17.1498C3.14773 17.1451 3.15247 17.1405 3.15732 17.1359L8.9772 11.6584L3.18215 6.88597C3.16951 6.87556 3.15752 6.86466 3.14617 6.85332C3.05247 7.04913 3 7.26844 3 7.5V16.5096C3 16.7386 3.05132 16.9557 3.1431 17.1498ZM20.8569 17.1498C20.9487 16.9557 21 16.7386 21 16.5096V7.5C21 7.26844 20.9475 7.04914 20.8538 6.85333C20.8425 6.86466 20.8305 6.87556 20.8179 6.88597L15.0228 11.6584L20.8427 17.1359C20.8475 17.1405 20.8523 17.1451 20.8569 17.1498ZM20.1444 6.1451C19.9492 6.05207 19.7307 6 19.5 6H4.5C4.26933 6 4.05081 6.05207 3.85557 6.1451L12 12.8523L20.1444 6.1451ZM4.5 5H19.5C20.8807 5 22 6.11929 22 7.5V16.5096C22 17.8903 20.8807 19.0096 19.5 19.0096H4.5C3.11929 19.0096 2 17.8903 2 16.5096V7.5C2 6.11929 3.11929 5 4.5 5Z" fill="#D4D8D5"/>
</svg>
