<svg width="30" height="30" viewBox="0 0 30 30" fill="none" xmlns="http://www.w3.org/2000/svg">
<path d="M21.2493 20.3654L26.0669 25.1831C26.311 25.4271 26.311 25.8229 26.0669 26.0669C25.8229 26.311 25.4271 26.311 25.1831 26.0669L20.3654 21.2493C18.6025 22.8056 16.2865 23.75 13.75 23.75C8.22715 23.75 3.75 19.2728 3.75 13.75C3.75 8.22715 8.22715 3.75 13.75 3.75C19.2728 3.75 23.75 8.22715 23.75 13.75C23.75 16.2865 22.8056 18.6025 21.2493 20.3654ZM13.75 22.5C18.5825 22.5 22.5 18.5825 22.5 13.75C22.5 8.91751 18.5825 5 13.75 5C8.91751 5 5 8.91751 5 13.75C5 18.5825 8.91751 22.5 13.75 22.5Z" fill="white"/>
</svg>
