<svg width="24" height="24" viewBox="0 0 24 24" fill="none" xmlns="http://www.w3.org/2000/svg">
<path d="M7.86872 11.2988L3.81349 13.3862C3.31396 13.6434 3 14.1581 3 14.7199V15.5C3 16.3284 3.67158 17 4.50007 17C4.77621 17 5.00007 17.2239 5.00007 17.5C5.00007 17.7761 4.77621 18 4.50007 18C3.1193 18 2 16.8807 2 15.5V14.7199C2 13.7835 2.52326 12.9257 3.35581 12.4971L6.71356 10.7687C5.64187 9.83429 5 8.47231 5 7C5 4.23858 7.23858 2 10 2C11.6766 2 13.2132 2.83195 14.138 4.19255C14.2932 4.42094 14.2339 4.73191 14.0055 4.88714C13.7771 5.04236 13.4661 4.98305 13.3109 4.75466C12.5704 3.66515 11.3419 3 10 3C7.79086 3 6 4.79086 6 7C6 8.41171 6.7368 9.69567 7.92027 10.4176C8.15601 10.5614 8.23054 10.8691 8.08674 11.1048C8.03291 11.1931 7.95611 11.2587 7.86872 11.2988ZM11.9613 15.5668L7.8793 17.4223C7.3438 17.6657 7 18.1996 7 18.7878V19.5C7 20.3284 7.67157 21 8.5 21H19.5C20.3284 21 21 20.3284 21 19.5V18.7878C21 18.1996 20.6562 17.6657 20.1207 17.4223L16.0387 15.5668C15.4161 15.8452 14.7261 16 14 16C13.2739 16 12.5839 15.8452 11.9613 15.5668ZM10.9222 14.9407C9.75209 14.0255 9 12.6006 9 11C9 8.23858 11.2386 6 14 6C16.7614 6 19 8.23858 19 11C19 12.6006 18.2479 14.0255 17.0778 14.9407L20.5345 16.5119C21.427 16.9176 22 17.8075 22 18.7878V19.5C22 20.8807 20.8807 22 19.5 22H8.5C7.11929 22 6 20.8807 6 19.5V18.7878C6 17.8075 6.57301 16.9176 7.46549 16.5119L10.9222 14.9407ZM14 15C16.2091 15 18 13.2091 18 11C18 8.79086 16.2091 7 14 7C11.7909 7 10 8.79086 10 11C10 13.2091 11.7909 15 14 15Z" fill="#D4D8D5"/>
</svg>
