<svg width="15" height="15" viewBox="0 0 15 15" fill="none" xmlns="http://www.w3.org/2000/svg">
<path d="M10.2197 7L7.85983 4.64017C7.71339 4.49372 7.71339 4.25628 7.85983 4.10983C8.00628 3.96339 8.24372 3.96339 8.39017 4.10983L11.3902 7.10983C11.5366 7.25628 11.5366 7.49372 11.3902 7.64017L8.39017 10.6402C8.24372 10.7866 8.00628 10.7866 7.85983 10.6402C7.71339 10.4937 7.71339 10.2563 7.85983 10.1098L10.2197 7.75H3.625C3.41789 7.75 3.25 7.58211 3.25 7.375C3.25 7.16789 3.41789 7 3.625 7H10.2197ZM7.375 14.5C3.43997 14.5 0.25 11.31 0.25 7.375C0.25 3.43997 3.43997 0.25 7.375 0.25C11.31 0.25 14.5 3.43997 14.5 7.375C14.5 11.31 11.31 14.5 7.375 14.5ZM7.375 13.75C10.8958 13.75 13.75 10.8958 13.75 7.375C13.75 3.85418 10.8958 1 7.375 1C3.85418 1 1 3.85418 1 7.375C1 10.8958 3.85418 13.75 7.375 13.75Z" fill="white"/>
</svg>
